<svg width="100" height="100" viewBox="0 0 100 100" fill="none" xmlns="http://www.w3.org/2000/svg">
  <rect width="100" height="100" rx="15" fill="#233D4D" />
  <path d="M28.36 67.24C26.808 67.24 25.496 66.744 24.424 65.752C23.368 64.76 22.84 63.584 22.84 62.224C22.84 61.232 23.08 60.304 23.56 59.44C24.056 58.576 24.72 57.88 25.552 57.352C26.384 56.808 27.304 56.536 28.312 56.536C29.88 56.536 31.16 57.08 32.152 58.168C33.144 59.256 33.64 60.592 33.64 62.176C33.64 63.68 33.12 64.904 32.08 65.848C31.056 66.776 29.816 67.24 28.36 67.24ZM28.336 41.752C29.952 41.752 31.264 42.32 32.272 43.456C33.28 44.576 33.784 45.936 33.784 47.536C33.784 48.992 33.272 50.2 32.248 51.16C31.224 52.12 30.016 52.6 28.624 52.6C27.552 52.6 26.552 52.368 25.624 51.904C24.712 51.44 23.968 50.8 23.392 49.984C22.832 49.152 22.552 48.2 22.552 47.128C22.552 46.12 22.816 45.216 23.344 44.416C23.888 43.6 24.6 42.952 25.48 42.472C26.36 41.992 27.312 41.752 28.336 41.752ZM52.4909 29.872C54.4909 30.272 56.0109 30.72 57.0509 31.216C58.0909 31.712 58.8829 32.28 59.4269 32.92C58.2909 36.936 57.0109 40.824 55.5869 44.584C54.1789 48.328 52.6989 51.864 51.1469 55.192C49.5949 58.504 48.0269 61.552 46.4429 64.336C44.8589 67.104 43.3229 69.52 41.8349 71.584C40.5069 71.28 39.2109 70.76 37.9469 70.024C36.6989 69.288 35.6909 68.536 34.9229 67.768C36.0909 65.896 37.3389 63.664 38.6669 61.072C39.9949 58.48 41.3309 55.736 42.6749 52.84C44.0189 49.928 45.3149 47.04 46.5629 44.176C47.8109 41.296 48.9469 38.616 49.9709 36.136C50.9949 33.656 51.8349 31.568 52.4909 29.872ZM71.6159 29.872C73.6159 30.272 75.1359 30.72 76.1759 31.216C77.2159 31.712 78.0079 32.28 78.5519 32.92C77.4159 36.936 76.1359 40.824 74.7119 44.584C73.3039 48.328 71.8239 51.864 70.2719 55.192C68.7199 58.504 67.1519 61.552 65.5679 64.336C63.9839 67.104 62.4479 69.52 60.9599 71.584C59.6319 71.28 58.3359 70.76 57.0719 70.024C55.8239 69.288 54.8159 68.536 54.0479 67.768C55.2159 65.896 56.4639 63.664 57.7919 61.072C59.1199 58.48 60.4559 55.736 61.7999 52.84C63.1439 49.928 64.4399 47.04 65.6879 44.176C66.9359 41.296 68.0719 38.616 69.0959 36.136C70.1199 33.656 70.9599 31.568 71.6159 29.872Z"
        fill="#A1C181" />
</svg>
